<!DOCTYPE svg PUBLIC "-//W3C//DTD SVG 1.1//EN" "http://www.w3.org/Graphics/SVG/1.1/DTD/svg11.dtd">
<!-- Uploaded to: SVG Repo, www.svgrepo.com, Transformed by: SVG Repo Mixer Tools -->
<svg fill="#14134f" height="800px" width="800px" version="1.1" id="Layer_1" xmlns="http://www.w3.org/2000/svg" xmlns:xlink="http://www.w3.org/1999/xlink" viewBox="0 0 512 512" xml:space="preserve" stroke="#14134f">
<g id="SVGRepo_bgCarrier" stroke-width="0"/>
<g id="SVGRepo_tracerCarrier" stroke-linecap="round" stroke-linejoin="round"/>
<g id="SVGRepo_iconCarrier"> <g> <g> <g> <circle cx="209.704" cy="257.084" r="10.667"/> <path d="M302.615,267.747c5.89,0,10.669-4.775,10.669-10.669c0-5.89-4.779-10.664-10.669-10.664 c-5.889,0-10.664,4.774-10.664,10.664C291.949,262.972,296.726,267.747,302.615,267.747z"/> <path d="M223.313,318.923c4.165,4.167,10.923,4.166,15.089-0.001c4.74-4.741,11.046-7.353,17.756-7.353 c6.707,0,13.013,2.611,17.754,7.353c2.084,2.084,4.814,3.126,7.545,3.126c2.729,0,5.459-1.042,7.543-3.125 c4.165-4.165,4.167-10.921,0-15.088c-8.771-8.773-20.433-13.604-32.841-13.604c-12.409,0-24.073,4.831-32.844,13.604 C219.146,308.002,219.148,314.758,223.313,318.923z"/> <path d="M88.142,447.755c-5.695-1.523-11.541,1.858-13.063,7.551c-0.079,0.298-0.158,0.608-0.232,0.921 c-1.346,5.737,2.213,11.477,7.947,12.823c0.822,0.194,1.64,0.286,2.448,0.286c4.84,0,9.223-3.317,10.377-8.233l0.07-0.286 C97.214,455.125,93.835,449.275,88.142,447.755z"/> <path d="M125.292,368.019c-16.784,16.464-30.158,35.692-39.743,57.15c-2.405,5.38,0.009,11.688,5.389,14.092 c1.413,0.632,2.89,0.931,4.344,0.931c4.08,0,7.977-2.355,9.748-6.32c8.491-19.005,20.335-36.038,35.202-50.62 c4.207-4.126,4.274-10.881,0.148-15.088C136.255,363.96,129.502,363.896,125.292,368.019z"/> <path d="M217.39,469.334h77.221c5.892,0,10.669-4.779,10.669-10.669c0-5.892-4.776-10.669-10.669-10.669H217.39 c-5.89,0-10.669,4.776-10.669,10.669C206.721,464.555,211.5,469.334,217.39,469.334z"/> <path d="M512,92.449c0-5.891-4.776-10.669-10.669-10.669H352.734c-4.58-4.61-9.462-8.898-14.667-12.79 c-23.371-17.481-51.722-26.72-81.989-26.72c-30.266,0-58.617,9.24-81.989,26.722c-5.203,3.892-10.083,8.179-14.665,12.788H10.669 C4.776,81.78,0,86.557,0,92.449c0,5.891,4.776,10.669,10.669,10.669h131.438c-8.043,12.19-14.407,25.847-18.845,40.699 c-1.769,5.923-2.746,12.612-3.14,19.737H10.669C4.776,163.553,0,168.331,0,174.222c0,5.892,4.776,10.669,10.669,10.669h109.744 c1.375,19.659,5.306,40.168,8.354,56.066c0.293,1.527,0.573,2.982,0.838,4.376H10.669C4.776,245.333,0,250.11,0,256.002 c0,5.891,4.776,10.669,10.669,10.669H133.39c2.836,15.199,5.706,26.514,9.091,35.388c-12.667,7.228-24.597,15.61-35.615,25.048 H10.669C4.776,327.107,0,331.884,0,337.776c0,5.891,4.776,10.669,10.669,10.669H85.07c-8.778,9.812-16.745,20.39-23.771,31.65 c-5.774,9.256-10.852,18.878-15.218,28.788H10.669C4.776,408.883,0,413.659,0,419.551c0,5.89,4.776,10.669,10.669,10.669H37.93 c-6.338,19.468-10.054,39.785-11.008,60.44H10.669C4.776,490.66,0,495.437,0,501.329c0,5.89,4.776,10.669,10.669,10.669h26.668 h134.402H340.26h134.404h26.665c5.892,0,10.669-4.779,10.669-10.669c0-5.892-4.776-10.669-10.669-10.669H485.08 c-0.955-20.656-4.67-40.972-11.008-60.44h27.26c5.892,0,10.669-4.779,10.669-10.669c0-5.892-4.776-10.669-10.669-10.669h-35.411 c-4.368-9.91-9.444-19.532-15.22-28.788c-7.024-11.26-14.991-21.838-23.771-31.65h74.401c5.892,0,10.669-4.777,10.669-10.669 c0-5.891-4.776-10.669-10.669-10.669h-96.198c-10.981-9.406-22.865-17.761-35.484-24.973c3.398-8.884,6.274-20.221,9.119-35.463 h122.563c5.892,0,10.669-4.777,10.669-10.669c0-5.892-4.776-10.669-10.669-10.669H382.554c0.265-1.397,0.544-2.855,0.838-4.384 c3.049-15.895,6.978-36.401,8.351-56.058h109.588c5.892,0,10.669-4.776,10.669-10.669c0-5.891-4.776-10.669-10.669-10.669 H392.036c-0.394-7.126-1.371-13.814-3.14-19.737c-4.436-14.853-10.8-28.51-18.843-40.699h131.28 C507.225,103.117,512,98.341,512,92.449z M329.593,490.66H182.408v-63.995h147.184V490.66z M393.356,345.061 c0.479,0.512,1.006,0.976,1.577,1.386c23.585,21.091,41.896,47.157,53.717,76.207c0.194,0.636,0.448,1.242,0.75,1.821 c8.237,20.81,13.165,43.112,14.328,66.185H350.93v-74.664c0-5.892-4.776-10.669-10.669-10.669H171.74 c-5.892,0-10.669,4.776-10.669,10.669v74.664H48.274c1.165-23.082,6.093-45.388,14.334-66.203 c0.298-0.571,0.548-1.169,0.737-1.794c11.827-29.066,30.15-55.144,53.75-76.242c0.55-0.398,1.06-0.846,1.526-1.339 c10.444-9.155,21.893-17.342,34.251-24.395c6.499,7.96,14.834,13.644,26.33,20.957c3.938,2.506,8.404,5.346,13.281,8.654 l0.654,0.41c20.64,11.916,41.814,17.959,62.939,17.96c0.002,0,0.002,0,0.004,0c21.121,0,42.299-6.045,62.945-17.964l0.654-0.41 c4.876-3.309,9.341-6.148,13.281-8.653c11.462-7.292,19.785-12.964,26.276-20.89 C371.544,327.785,382.948,335.943,393.356,345.061z M152.745,253.642l25.142-54.071h78.191v-0.001h78.19l25.144,54.072 c-3.99,23.659-7.396,37.227-12.184,46.424c-0.409,0.524-0.778,1.089-1.091,1.703c-0.181,0.353-0.337,0.712-0.475,1.073 c-5.443,8.892-12.696,13.509-24.153,20.795c-3.976,2.53-8.472,5.39-13.48,8.777c-17.253,9.899-34.73,14.918-51.949,14.918 c0,0-0.002,0-0.004,0c-17.223-0.001-34.696-5.019-51.945-14.914c-5.005-3.387-9.502-6.247-13.48-8.777 c-11.893-7.567-19.26-12.253-24.772-21.838c-0.006-0.012-0.011-0.023-0.017-0.035c-0.044-0.085-0.096-0.162-0.142-0.246 C160.506,292.308,156.95,278.582,152.745,253.642z M370.898,173.562c-0.015,0.22-0.033,0.437-0.033,0.66 c0,0.117,0.013,0.232,0.017,0.348c-0.317,13.694-2.471,29.047-4.828,42.75l-15.307-32.917c-1.749-3.763-5.522-6.17-9.672-6.17 h-84.995h-84.995c-4.151,0-7.925,2.407-9.672,6.17l-15.307,32.917c-2.352-13.68-4.503-29.004-4.825-42.68 c0.004-0.14,0.021-0.277,0.021-0.418c0-0.268-0.021-0.53-0.039-0.793c-0.14-8.896,0.518-17.045,2.448-23.505 c5.853-19.591,15.395-36.44,27.763-49.927c0.258-0.257,0.5-0.53,0.732-0.814c21.189-22.668,50.514-35.576,83.876-35.576 c33.359,0,62.679,12.904,83.868,35.564c0.238,0.291,0.488,0.572,0.754,0.838c12.363,13.485,21.9,30.328,27.749,49.914 C370.39,156.417,371.046,164.616,370.898,173.562z"/> <path d="M10.669,21.34h490.663c5.892,0,10.669-4.777,10.669-10.669c0-5.892-4.776-10.669-10.669-10.669H10.669 C4.776,0.002,0,4.778,0,10.671C0,16.562,4.776,21.34,10.669,21.34z"/> </g> </g> </g> </g>
</svg>